<svg xmlns="http://www.w3.org/2000/svg" version="1.1" xmlns:xlink="http://www.w3.org/1999/xlink"
    xmlns:svgjs="http://svgjs.com/svgjs" width="1440" height="560" preserveAspectRatio="none" viewBox="0 0 1440 560">
    <g mask="url(&quot;#SvgjsMask1000&quot;)" fill="none">
        <g mask="url(&quot;#SvgjsMask1001&quot;)">
            <path
                d="M945 315L931 329L917 329L903 329L889 329L875 329M1099 315L1085 315L1071 329L1057 329L1043 329L1029 329M1015 301L1001 287L987 273L973 273L959 273L945 273L931 273L917 273L903 273L889 273L875 273L861 273L847 273L833 273L819 273L805 273M1001 301L987 315L973 315M1141 301L1127 301L1113 301L1099 301M819 315L805 301L791 301M1323 301L1309 287M987 301L973 287L959 287L945 287L931 287L917 301L903 301L889 301L875 301L861 301L847 301L833 301M1239 301L1225 287M1337 287L1323 287M973 301L959 301L945 301L931 301M1449 287L1435 287L1421 287L1407 287L1393 287L1379 287L1365 287L1351 287L1337 287L1323 301L1309 301L1295 301L1281 301L1267 301L1253 301L1239 301L1225 301L1211 301L1197 301L1183 301L1169 301L1155 301L1141 301L1127 315L1113 315L1099 315L1085 301L1071 301L1057 301L1043 301L1029 301L1015 301L1001 301L987 301L973 301L959 315L945 315L931 315L917 315L903 315L889 315L875 315L861 315L847 315L833 315L819 315L805 315"
                stroke="rgba(255, 255, 255, 1)" stroke-width="2.33"></path>
            <path
                d="M801.5 315 a3.5 3.5 0 1 0 7 0 a3.5 3.5 0 1 0 -7 0zM871.5 329 a3.5 3.5 0 1 0 7 0 a3.5 3.5 0 1 0 -7 0zM1025.5 329 a3.5 3.5 0 1 0 7 0 a3.5 3.5 0 1 0 -7 0zM801.5 273 a3.5 3.5 0 1 0 7 0 a3.5 3.5 0 1 0 -7 0zM969.5 315 a3.5 3.5 0 1 0 7 0 a3.5 3.5 0 1 0 -7 0zM1095.5 301 a3.5 3.5 0 1 0 7 0 a3.5 3.5 0 1 0 -7 0zM787.5 301 a3.5 3.5 0 1 0 7 0 a3.5 3.5 0 1 0 -7 0zM1305.5 287 a3.5 3.5 0 1 0 7 0 a3.5 3.5 0 1 0 -7 0zM829.5 301 a3.5 3.5 0 1 0 7 0 a3.5 3.5 0 1 0 -7 0zM1221.5 287 a3.5 3.5 0 1 0 7 0 a3.5 3.5 0 1 0 -7 0zM1319.5 287 a3.5 3.5 0 1 0 7 0 a3.5 3.5 0 1 0 -7 0zM927.5 301 a3.5 3.5 0 1 0 7 0 a3.5 3.5 0 1 0 -7 0z"
                fill="rgba(255, 255, 255, 1)"></path>
            <path
                d="M1309 273L1295 273L1281 273M1449 273L1435 273L1421 273L1407 273L1393 273L1379 273L1365 273L1351 273L1337 273L1323 273L1309 273L1295 287"
                stroke="rgba(255, 255, 255, 1)" stroke-width="2.33"></path>
            <path
                d="M1291.5 287 a3.5 3.5 0 1 0 7 0 a3.5 3.5 0 1 0 -7 0zM1277.5 273 a3.5 3.5 0 1 0 7 0 a3.5 3.5 0 1 0 -7 0z"
                fill="rgba(255, 255, 255, 1)"></path>
            <path
                d="M1155 315L1141 329M1085 343L1071 343L1057 343M1113 329L1099 329L1085 329M1449 301L1435 301L1421 301L1407 301L1393 301L1379 301L1365 301L1351 301L1337 301L1323 315L1309 315L1295 315L1281 315L1267 315L1253 315L1239 315L1225 315L1211 315L1197 315L1183 315L1169 315L1155 315L1141 315L1127 329L1113 329L1099 343L1085 343L1071 357L1057 357"
                stroke="rgba(255, 255, 255, 1)" stroke-width="2.33"></path>
            <path
                d="M1053.5 357 a3.5 3.5 0 1 0 7 0 a3.5 3.5 0 1 0 -7 0zM1137.5 329 a3.5 3.5 0 1 0 7 0 a3.5 3.5 0 1 0 -7 0zM1053.5 343 a3.5 3.5 0 1 0 7 0 a3.5 3.5 0 1 0 -7 0zM1081.5 329 a3.5 3.5 0 1 0 7 0 a3.5 3.5 0 1 0 -7 0z"
                fill="rgba(255, 255, 255, 1)"></path>
            <path
                d="M1211 287L1197 273L1183 273L1169 273L1155 273L1141 273M1253 259L1239 273M1239 259L1225 259M1113 287L1099 273L1085 273L1071 273M1127 287L1113 273L1099 259L1085 259L1071 259L1057 259L1043 259L1029 259M1267 259L1253 273L1239 287M1449 259L1435 259L1421 259L1407 259L1393 259L1379 259L1365 259L1351 259L1337 259L1323 259L1309 259L1295 259L1281 259L1267 259L1253 259L1239 259L1225 273L1211 287L1197 287L1183 287L1169 287L1155 287L1141 287L1127 287L1113 287L1099 287"
                stroke="rgba(255, 255, 255, 1)" stroke-width="2.33"></path>
            <path
                d="M1095.5 287 a3.5 3.5 0 1 0 7 0 a3.5 3.5 0 1 0 -7 0zM1137.5 273 a3.5 3.5 0 1 0 7 0 a3.5 3.5 0 1 0 -7 0zM1235.5 273 a3.5 3.5 0 1 0 7 0 a3.5 3.5 0 1 0 -7 0zM1221.5 259 a3.5 3.5 0 1 0 7 0 a3.5 3.5 0 1 0 -7 0zM1067.5 273 a3.5 3.5 0 1 0 7 0 a3.5 3.5 0 1 0 -7 0zM1025.5 259 a3.5 3.5 0 1 0 7 0 a3.5 3.5 0 1 0 -7 0zM1235.5 287 a3.5 3.5 0 1 0 7 0 a3.5 3.5 0 1 0 -7 0z"
                fill="rgba(255, 255, 255, 1)"></path>
            <path
                d="M1211 329L1197 343L1183 343L1169 343M1127 343L1113 357M1141 343L1127 357M1225 329L1211 343M1449 315L1435 315L1421 315L1407 315L1393 315L1379 315L1365 315L1351 315L1337 315L1323 329L1309 329L1295 329L1281 329L1267 329L1253 329L1239 329L1225 329L1211 329L1197 329L1183 329L1169 329L1155 343L1141 343L1127 343L1113 343L1099 357L1085 357L1071 371L1057 371L1043 371"
                stroke="rgba(255, 255, 255, 1)" stroke-width="2.33"></path>
            <path
                d="M1039.5 371 a3.5 3.5 0 1 0 7 0 a3.5 3.5 0 1 0 -7 0zM1165.5 343 a3.5 3.5 0 1 0 7 0 a3.5 3.5 0 1 0 -7 0zM1109.5 357 a3.5 3.5 0 1 0 7 0 a3.5 3.5 0 1 0 -7 0zM1123.5 357 a3.5 3.5 0 1 0 7 0 a3.5 3.5 0 1 0 -7 0zM1207.5 343 a3.5 3.5 0 1 0 7 0 a3.5 3.5 0 1 0 -7 0z"
                fill="rgba(255, 255, 255, 1)"></path>
            <path
                d="M1113 217L1099 231L1085 231L1071 231M1015 203L1001 189L987 189L973 189L959 189L945 189L931 189M1155 217L1141 203L1127 203L1113 203M1029 203L1015 189L1001 175L987 175M1085 203L1071 189L1057 189L1043 189L1029 189M1057 203L1043 217L1029 217L1015 217L1001 217L987 217L973 217M1099 217L1085 217L1071 217L1057 217M1197 217L1183 231L1169 231M1449 245L1435 245L1421 245L1407 245L1393 245L1379 245L1365 245L1351 245L1337 245L1323 245L1309 245L1295 245L1281 245L1267 245L1253 245L1239 245L1225 245L1211 231L1197 217L1183 217L1169 217L1155 217L1141 217L1127 217L1113 217L1099 217L1085 203L1071 203L1057 203L1043 203L1029 203L1015 203L1001 203L987 203"
                stroke="rgba(2, 133, 195, 1)" stroke-width="2.33"></path>
            <path
                d="M983.5 203 a3.5 3.5 0 1 0 7 0 a3.5 3.5 0 1 0 -7 0zM1067.5 231 a3.5 3.5 0 1 0 7 0 a3.5 3.5 0 1 0 -7 0zM927.5 189 a3.5 3.5 0 1 0 7 0 a3.5 3.5 0 1 0 -7 0zM1109.5 203 a3.5 3.5 0 1 0 7 0 a3.5 3.5 0 1 0 -7 0zM983.5 175 a3.5 3.5 0 1 0 7 0 a3.5 3.5 0 1 0 -7 0zM1025.5 189 a3.5 3.5 0 1 0 7 0 a3.5 3.5 0 1 0 -7 0zM969.5 217 a3.5 3.5 0 1 0 7 0 a3.5 3.5 0 1 0 -7 0zM1053.5 217 a3.5 3.5 0 1 0 7 0 a3.5 3.5 0 1 0 -7 0zM1165.5 231 a3.5 3.5 0 1 0 7 0 a3.5 3.5 0 1 0 -7 0z"
                fill="rgba(2, 133, 195, 1)"></path>
            <path
                d="M1239 343L1225 343M1449 329L1435 329L1421 329L1407 329L1393 329L1379 329L1365 329L1351 329L1337 329L1323 343L1309 343L1295 343L1281 343L1267 343L1253 343L1239 343L1225 357L1211 357L1197 357L1183 357L1169 357L1155 357"
                stroke="rgba(2, 133, 195, 1)" stroke-width="2.33"></path>
            <path
                d="M1151.5 357 a3.5 3.5 0 1 0 7 0 a3.5 3.5 0 1 0 -7 0zM1221.5 343 a3.5 3.5 0 1 0 7 0 a3.5 3.5 0 1 0 -7 0z"
                fill="rgba(2, 133, 195, 1)"></path>
            <path
                d="M1407 231L1393 217M1113 189L1099 189M1169 203L1155 203M1449 231L1435 231L1421 231L1407 231L1393 231L1379 231L1365 231L1351 231L1337 231L1323 231L1309 231L1295 231L1281 231L1267 231L1253 231L1239 231L1225 231L1211 217L1197 203L1183 203L1169 203L1155 189L1141 189L1127 189L1113 189L1099 203"
                stroke="rgba(2, 133, 195, 1)" stroke-width="2.33"></path>
            <path
                d="M1095.5 203 a3.5 3.5 0 1 0 7 0 a3.5 3.5 0 1 0 -7 0zM1389.5 217 a3.5 3.5 0 1 0 7 0 a3.5 3.5 0 1 0 -7 0zM1095.5 189 a3.5 3.5 0 1 0 7 0 a3.5 3.5 0 1 0 -7 0zM1151.5 203 a3.5 3.5 0 1 0 7 0 a3.5 3.5 0 1 0 -7 0z"
                fill="rgba(2, 133, 195, 1)"></path>
            <path
                d="M1127 371L1113 385L1099 385L1085 385M1001 385L987 385L973 385L959 385L945 385M1197 371L1183 385L1169 385L1155 385L1141 385L1127 385M1309 357L1295 371L1281 371L1267 371L1253 371M1043 385L1029 399L1015 399L1001 399L987 399L973 399L959 413L945 413L931 413L917 427L903 427L889 427L875 413L861 413L847 413L833 413M959 371L945 357M987 371L973 357L959 357L945 343L931 343L917 343L903 343L889 343L875 343L861 343L847 343L833 343L819 357M1225 371L1211 385L1197 385L1183 399L1169 399M1029 385L1015 371L1001 371L987 357L973 343L959 343L945 329M1449 343L1435 343L1421 343L1407 343L1393 343L1379 343L1365 343L1351 343L1337 343L1323 357L1309 357L1295 357L1281 357L1267 357L1253 357L1239 357L1225 371L1211 371L1197 371L1183 371L1169 371L1155 371L1141 371L1127 371L1113 371L1099 371L1085 371L1071 385L1057 385L1043 385L1029 385L1015 385L1001 385L987 371L973 371L959 371L945 371L931 371"
                stroke="rgba(255, 255, 255, 1)" stroke-width="2.33"></path>
            <path
                d="M927.5 371 a3.5 3.5 0 1 0 7 0 a3.5 3.5 0 1 0 -7 0zM1081.5 385 a3.5 3.5 0 1 0 7 0 a3.5 3.5 0 1 0 -7 0zM941.5 385 a3.5 3.5 0 1 0 7 0 a3.5 3.5 0 1 0 -7 0zM1123.5 385 a3.5 3.5 0 1 0 7 0 a3.5 3.5 0 1 0 -7 0zM1249.5 371 a3.5 3.5 0 1 0 7 0 a3.5 3.5 0 1 0 -7 0zM829.5 413 a3.5 3.5 0 1 0 7 0 a3.5 3.5 0 1 0 -7 0zM941.5 357 a3.5 3.5 0 1 0 7 0 a3.5 3.5 0 1 0 -7 0zM815.5 357 a3.5 3.5 0 1 0 7 0 a3.5 3.5 0 1 0 -7 0zM1165.5 399 a3.5 3.5 0 1 0 7 0 a3.5 3.5 0 1 0 -7 0zM941.5 329 a3.5 3.5 0 1 0 7 0 a3.5 3.5 0 1 0 -7 0z"
                fill="rgba(255, 255, 255, 1)"></path>
            <path
                d="M1421 217L1407 217M1393 203L1379 203L1365 203M1449 217L1435 217L1421 217L1407 203L1393 203L1379 217L1365 217L1351 217L1337 217L1323 217L1309 217L1295 217L1281 217L1267 217L1253 217L1239 217L1225 217L1211 203L1197 189L1183 189L1169 189L1155 175L1141 175L1127 175L1113 175L1099 175"
                stroke="rgba(255, 255, 255, 1)" stroke-width="2.33"></path>
            <path
                d="M1095.5 175 a3.5 3.5 0 1 0 7 0 a3.5 3.5 0 1 0 -7 0zM1403.5 217 a3.5 3.5 0 1 0 7 0 a3.5 3.5 0 1 0 -7 0zM1361.5 203 a3.5 3.5 0 1 0 7 0 a3.5 3.5 0 1 0 -7 0z"
                fill="rgba(255, 255, 255, 1)"></path>
            <path
                d="M1295 385L1281 399L1267 399L1253 399L1239 385M1323 371L1309 371M1449 357L1435 357L1421 357L1407 357L1393 357L1379 357L1365 357L1351 357L1337 357L1323 371L1309 385L1295 385L1281 385L1267 385L1253 385"
                stroke="rgba(2, 133, 195, 1)" stroke-width="2.33"></path>
            <path
                d="M1249.5 385 a3.5 3.5 0 1 0 7 0 a3.5 3.5 0 1 0 -7 0zM1235.5 385 a3.5 3.5 0 1 0 7 0 a3.5 3.5 0 1 0 -7 0zM1305.5 371 a3.5 3.5 0 1 0 7 0 a3.5 3.5 0 1 0 -7 0z"
                fill="rgba(2, 133, 195, 1)"></path>
            <path
                d="M1351 189L1337 189L1323 189M945 175L931 161L917 161L903 161L889 161L875 161M987 161L973 161L959 161L945 161L931 147L917 147L903 147L889 147L875 147M1113 161L1099 147L1085 147M1043 161L1029 175L1015 175M1029 161L1015 147L1001 147L987 147L973 147L959 147L945 147L931 133L917 133M1071 161L1057 175L1043 175M1127 161L1113 147M1085 161L1071 175M1449 203L1435 203L1421 203L1407 189L1393 189L1379 189L1365 189L1351 189L1337 203L1323 203L1309 203L1295 203L1281 203L1267 203L1253 203L1239 203L1225 203L1211 189L1197 175L1183 175L1169 175L1155 161L1141 161L1127 161L1113 161L1099 161L1085 161L1071 161L1057 161L1043 161L1029 161L1015 161L1001 161L987 161L973 175L959 175L945 175L931 175"
                stroke="rgba(255, 255, 255, 1)" stroke-width="2.33"></path>
            <path
                d="M927.5 175 a3.5 3.5 0 1 0 7 0 a3.5 3.5 0 1 0 -7 0zM1319.5 189 a3.5 3.5 0 1 0 7 0 a3.5 3.5 0 1 0 -7 0zM871.5 161 a3.5 3.5 0 1 0 7 0 a3.5 3.5 0 1 0 -7 0zM871.5 147 a3.5 3.5 0 1 0 7 0 a3.5 3.5 0 1 0 -7 0zM1081.5 147 a3.5 3.5 0 1 0 7 0 a3.5 3.5 0 1 0 -7 0zM1011.5 175 a3.5 3.5 0 1 0 7 0 a3.5 3.5 0 1 0 -7 0zM913.5 133 a3.5 3.5 0 1 0 7 0 a3.5 3.5 0 1 0 -7 0zM1039.5 175 a3.5 3.5 0 1 0 7 0 a3.5 3.5 0 1 0 -7 0zM1109.5 147 a3.5 3.5 0 1 0 7 0 a3.5 3.5 0 1 0 -7 0zM1067.5 175 a3.5 3.5 0 1 0 7 0 a3.5 3.5 0 1 0 -7 0z"
                fill="rgba(255, 255, 255, 1)"></path>
            <path
                d="M1449 371L1435 371L1421 371L1407 371L1393 371L1379 371L1365 371L1351 371L1337 371L1323 385L1309 399"
                stroke="rgba(255, 255, 255, 1)" stroke-width="2.33"></path>
            <path d="M1305.5 399 a3.5 3.5 0 1 0 7 0 a3.5 3.5 0 1 0 -7 0z" fill="rgba(255, 255, 255, 1)"></path>
            <path
                d="M889 105L875 91L861 91M945 119L931 105M1295 189L1281 175L1267 175L1253 175L1239 175L1225 175L1211 161L1197 147M1085 133L1071 133L1057 133L1043 133L1029 133M1001 119L987 105M931 119L917 119L903 119L889 119M1351 175L1337 161L1323 161L1309 161L1295 161M777 105L763 119L749 119M1071 119L1057 105L1043 105L1029 91L1015 91L1001 91L987 91L973 91L959 77L945 77L931 77L917 77L903 77M987 119L973 133L959 133M875 119L861 105M1365 175L1351 161M1449 189L1435 189L1421 189L1407 175L1393 175L1379 175L1365 175L1351 175L1337 175L1323 175L1309 189L1295 189L1281 189L1267 189L1253 189L1239 189L1225 189L1211 175L1197 161L1183 161L1169 161L1155 147L1141 147L1127 133L1113 133L1099 133L1085 133L1071 119L1057 119L1043 119L1029 119L1015 119L1001 119L987 119L973 119L959 119L945 119L931 119L917 105L903 105L889 105L875 119L861 119L847 119L833 105L819 105L805 105L791 105L777 105L763 105"
                stroke="rgba(255, 255, 255, 1)" stroke-width="2.33"></path>
            <path
                d="M759.5 105 a3.5 3.5 0 1 0 7 0 a3.5 3.5 0 1 0 -7 0zM857.5 91 a3.5 3.5 0 1 0 7 0 a3.5 3.5 0 1 0 -7 0zM927.5 105 a3.5 3.5 0 1 0 7 0 a3.5 3.5 0 1 0 -7 0zM1193.5 147 a3.5 3.5 0 1 0 7 0 a3.5 3.5 0 1 0 -7 0zM1025.5 133 a3.5 3.5 0 1 0 7 0 a3.5 3.5 0 1 0 -7 0zM983.5 105 a3.5 3.5 0 1 0 7 0 a3.5 3.5 0 1 0 -7 0zM885.5 119 a3.5 3.5 0 1 0 7 0 a3.5 3.5 0 1 0 -7 0zM1291.5 161 a3.5 3.5 0 1 0 7 0 a3.5 3.5 0 1 0 -7 0zM745.5 119 a3.5 3.5 0 1 0 7 0 a3.5 3.5 0 1 0 -7 0zM899.5 77 a3.5 3.5 0 1 0 7 0 a3.5 3.5 0 1 0 -7 0zM955.5 133 a3.5 3.5 0 1 0 7 0 a3.5 3.5 0 1 0 -7 0zM857.5 105 a3.5 3.5 0 1 0 7 0 a3.5 3.5 0 1 0 -7 0zM1347.5 161 a3.5 3.5 0 1 0 7 0 a3.5 3.5 0 1 0 -7 0z"
                fill="rgba(255, 255, 255, 1)"></path>
            <path
                d="M1239 413L1225 399L1211 399L1197 399M1155 413L1141 413L1127 413M1449 385L1435 385L1421 385L1407 385L1393 385L1379 385L1365 385L1351 385L1337 385L1323 399L1309 413L1295 413L1281 413L1267 413L1253 413L1239 413L1225 413L1211 413L1197 413L1183 413L1169 413L1155 413L1141 399L1127 399L1113 399L1099 399L1085 399L1071 399L1057 399"
                stroke="rgba(255, 255, 255, 1)" stroke-width="2.33"></path>
            <path
                d="M1053.5 399 a3.5 3.5 0 1 0 7 0 a3.5 3.5 0 1 0 -7 0zM1193.5 399 a3.5 3.5 0 1 0 7 0 a3.5 3.5 0 1 0 -7 0zM1123.5 413 a3.5 3.5 0 1 0 7 0 a3.5 3.5 0 1 0 -7 0z"
                fill="rgba(255, 255, 255, 1)"></path>
            <path
                d="M1267 133L1253 147M1309 133L1295 147M1281 133L1267 147L1253 161L1239 161L1225 161M1323 133L1309 147M1449 175L1435 175L1421 175L1407 161L1393 161L1379 147L1365 147L1351 147L1337 133L1323 133L1309 133L1295 133L1281 133L1267 133L1253 133L1239 133L1225 133L1211 133"
                stroke="rgba(255, 255, 255, 1)" stroke-width="2.33"></path>
            <path
                d="M1207.5 133 a3.5 3.5 0 1 0 7 0 a3.5 3.5 0 1 0 -7 0zM1249.5 147 a3.5 3.5 0 1 0 7 0 a3.5 3.5 0 1 0 -7 0zM1291.5 147 a3.5 3.5 0 1 0 7 0 a3.5 3.5 0 1 0 -7 0zM1221.5 161 a3.5 3.5 0 1 0 7 0 a3.5 3.5 0 1 0 -7 0zM1305.5 147 a3.5 3.5 0 1 0 7 0 a3.5 3.5 0 1 0 -7 0z"
                fill="rgba(255, 255, 255, 1)"></path>
            <path
                d="M1211 427L1197 441L1183 441L1169 455M1127 427L1113 427L1099 427L1085 427L1071 441M1141 427L1127 441L1113 455M1281 427L1267 441L1253 441L1239 441L1225 441M1379 399L1365 413L1351 413L1337 427L1323 427L1309 441L1295 441M1393 399L1379 413M1155 427L1141 441L1127 455L1113 469L1099 469L1085 469M1449 399L1435 399L1421 399L1407 399L1393 399L1379 399L1365 399L1351 399L1337 399L1323 413L1309 427L1295 427L1281 427L1267 427L1253 427L1239 427L1225 427L1211 427L1197 427L1183 427L1169 427L1155 427L1141 427L1127 427L1113 413L1099 413L1085 413L1071 413"
                stroke="rgba(255, 255, 255, 1)" stroke-width="2.33"></path>
            <path
                d="M1067.5 413 a3.5 3.5 0 1 0 7 0 a3.5 3.5 0 1 0 -7 0zM1165.5 455 a3.5 3.5 0 1 0 7 0 a3.5 3.5 0 1 0 -7 0zM1067.5 441 a3.5 3.5 0 1 0 7 0 a3.5 3.5 0 1 0 -7 0zM1109.5 455 a3.5 3.5 0 1 0 7 0 a3.5 3.5 0 1 0 -7 0zM1221.5 441 a3.5 3.5 0 1 0 7 0 a3.5 3.5 0 1 0 -7 0zM1291.5 441 a3.5 3.5 0 1 0 7 0 a3.5 3.5 0 1 0 -7 0zM1375.5 413 a3.5 3.5 0 1 0 7 0 a3.5 3.5 0 1 0 -7 0zM1081.5 469 a3.5 3.5 0 1 0 7 0 a3.5 3.5 0 1 0 -7 0z"
                fill="rgba(255, 255, 255, 1)"></path>
            <path d="M1449 161L1435 161L1421 161L1407 147" stroke="rgba(255, 255, 255, 1)" stroke-width="2.33"></path>
            <path d="M1403.5 147 a3.5 3.5 0 1 0 7 0 a3.5 3.5 0 1 0 -7 0z" fill="rgba(255, 255, 255, 1)"></path>
            <path
                d="M1435 413L1421 427L1407 427M1393 427L1379 441L1365 441L1351 441M1407 413L1393 413M1449 413L1435 413L1421 413L1407 413L1393 427L1379 427"
                stroke="rgba(2, 133, 195, 1)" stroke-width="2.33"></path>
            <path
                d="M1375.5 427 a3.5 3.5 0 1 0 7 0 a3.5 3.5 0 1 0 -7 0zM1403.5 427 a3.5 3.5 0 1 0 7 0 a3.5 3.5 0 1 0 -7 0zM1347.5 441 a3.5 3.5 0 1 0 7 0 a3.5 3.5 0 1 0 -7 0zM1389.5 413 a3.5 3.5 0 1 0 7 0 a3.5 3.5 0 1 0 -7 0z"
                fill="rgba(2, 133, 195, 1)"></path>
            <path
                d="M1337 119L1323 105L1309 105L1295 105M1155 119L1141 133M1197 119L1183 133L1169 133L1155 133M1211 119L1197 105L1183 105L1169 105L1155 105L1141 105L1127 105L1113 105M1225 119L1211 105L1197 91L1183 91L1169 77M1449 147L1435 147L1421 147L1407 133L1393 133L1379 133L1365 133L1351 133L1337 119L1323 119L1309 119L1295 119L1281 119L1267 119L1253 119L1239 119L1225 119L1211 119L1197 119L1183 119L1169 119L1155 119L1141 119"
                stroke="rgba(255, 255, 255, 1)" stroke-width="2.33"></path>
            <path
                d="M1137.5 119 a3.5 3.5 0 1 0 7 0 a3.5 3.5 0 1 0 -7 0zM1291.5 105 a3.5 3.5 0 1 0 7 0 a3.5 3.5 0 1 0 -7 0zM1137.5 133 a3.5 3.5 0 1 0 7 0 a3.5 3.5 0 1 0 -7 0zM1151.5 133 a3.5 3.5 0 1 0 7 0 a3.5 3.5 0 1 0 -7 0zM1109.5 105 a3.5 3.5 0 1 0 7 0 a3.5 3.5 0 1 0 -7 0zM1165.5 77 a3.5 3.5 0 1 0 7 0 a3.5 3.5 0 1 0 -7 0z"
                fill="rgba(255, 255, 255, 1)"></path>
        </g>
    </g>
    <defs>
        <mask id="SvgjsMask1000">
            <rect width="1440" height="560" fill="#ffffff"></rect>
        </mask>
        <mask id="SvgjsMask1001">
            <rect width="1440" height="560" fill="white"></rect>
            <path
                d="M803.25 315 a1.75 1.75 0 1 0 3.5 0 a1.75 1.75 0 1 0 -3.5 0zM873.25 329 a1.75 1.75 0 1 0 3.5 0 a1.75 1.75 0 1 0 -3.5 0zM1027.25 329 a1.75 1.75 0 1 0 3.5 0 a1.75 1.75 0 1 0 -3.5 0zM803.25 273 a1.75 1.75 0 1 0 3.5 0 a1.75 1.75 0 1 0 -3.5 0zM971.25 315 a1.75 1.75 0 1 0 3.5 0 a1.75 1.75 0 1 0 -3.5 0zM1097.25 301 a1.75 1.75 0 1 0 3.5 0 a1.75 1.75 0 1 0 -3.5 0zM789.25 301 a1.75 1.75 0 1 0 3.5 0 a1.75 1.75 0 1 0 -3.5 0zM1307.25 287 a1.75 1.75 0 1 0 3.5 0 a1.75 1.75 0 1 0 -3.5 0zM831.25 301 a1.75 1.75 0 1 0 3.5 0 a1.75 1.75 0 1 0 -3.5 0zM1223.25 287 a1.75 1.75 0 1 0 3.5 0 a1.75 1.75 0 1 0 -3.5 0zM1321.25 287 a1.75 1.75 0 1 0 3.5 0 a1.75 1.75 0 1 0 -3.5 0zM929.25 301 a1.75 1.75 0 1 0 3.5 0 a1.75 1.75 0 1 0 -3.5 0z"
                fill="black"></path>
            <path
                d="M1293.25 287 a1.75 1.75 0 1 0 3.5 0 a1.75 1.75 0 1 0 -3.5 0zM1279.25 273 a1.75 1.75 0 1 0 3.5 0 a1.75 1.75 0 1 0 -3.5 0z"
                fill="black"></path>
            <path
                d="M1055.25 357 a1.75 1.75 0 1 0 3.5 0 a1.75 1.75 0 1 0 -3.5 0zM1139.25 329 a1.75 1.75 0 1 0 3.5 0 a1.75 1.75 0 1 0 -3.5 0zM1055.25 343 a1.75 1.75 0 1 0 3.5 0 a1.75 1.75 0 1 0 -3.5 0zM1083.25 329 a1.75 1.75 0 1 0 3.5 0 a1.75 1.75 0 1 0 -3.5 0z"
                fill="black"></path>
            <path
                d="M1097.25 287 a1.75 1.75 0 1 0 3.5 0 a1.75 1.75 0 1 0 -3.5 0zM1139.25 273 a1.75 1.75 0 1 0 3.5 0 a1.75 1.75 0 1 0 -3.5 0zM1237.25 273 a1.75 1.75 0 1 0 3.5 0 a1.75 1.75 0 1 0 -3.5 0zM1223.25 259 a1.75 1.75 0 1 0 3.5 0 a1.75 1.75 0 1 0 -3.5 0zM1069.25 273 a1.75 1.75 0 1 0 3.5 0 a1.75 1.75 0 1 0 -3.5 0zM1027.25 259 a1.75 1.75 0 1 0 3.5 0 a1.75 1.75 0 1 0 -3.5 0zM1237.25 287 a1.75 1.75 0 1 0 3.5 0 a1.75 1.75 0 1 0 -3.5 0z"
                fill="black"></path>
            <path
                d="M1041.25 371 a1.75 1.75 0 1 0 3.5 0 a1.75 1.75 0 1 0 -3.5 0zM1167.25 343 a1.75 1.75 0 1 0 3.5 0 a1.75 1.75 0 1 0 -3.5 0zM1111.25 357 a1.75 1.75 0 1 0 3.5 0 a1.75 1.75 0 1 0 -3.5 0zM1125.25 357 a1.75 1.75 0 1 0 3.5 0 a1.75 1.75 0 1 0 -3.5 0zM1209.25 343 a1.75 1.75 0 1 0 3.5 0 a1.75 1.75 0 1 0 -3.5 0z"
                fill="black"></path>
            <path
                d="M985.25 203 a1.75 1.75 0 1 0 3.5 0 a1.75 1.75 0 1 0 -3.5 0zM1069.25 231 a1.75 1.75 0 1 0 3.5 0 a1.75 1.75 0 1 0 -3.5 0zM929.25 189 a1.75 1.75 0 1 0 3.5 0 a1.75 1.75 0 1 0 -3.5 0zM1111.25 203 a1.75 1.75 0 1 0 3.5 0 a1.75 1.75 0 1 0 -3.5 0zM985.25 175 a1.75 1.75 0 1 0 3.5 0 a1.75 1.75 0 1 0 -3.5 0zM1027.25 189 a1.75 1.75 0 1 0 3.5 0 a1.75 1.75 0 1 0 -3.5 0zM971.25 217 a1.75 1.75 0 1 0 3.5 0 a1.75 1.75 0 1 0 -3.5 0zM1055.25 217 a1.75 1.75 0 1 0 3.5 0 a1.75 1.75 0 1 0 -3.5 0zM1167.25 231 a1.75 1.75 0 1 0 3.5 0 a1.75 1.75 0 1 0 -3.5 0z"
                fill="black"></path>
            <path
                d="M1153.25 357 a1.75 1.75 0 1 0 3.5 0 a1.75 1.75 0 1 0 -3.5 0zM1223.25 343 a1.75 1.75 0 1 0 3.5 0 a1.75 1.75 0 1 0 -3.5 0z"
                fill="black"></path>
            <path
                d="M1097.25 203 a1.75 1.75 0 1 0 3.5 0 a1.75 1.75 0 1 0 -3.5 0zM1391.25 217 a1.75 1.75 0 1 0 3.5 0 a1.75 1.75 0 1 0 -3.5 0zM1097.25 189 a1.75 1.75 0 1 0 3.5 0 a1.75 1.75 0 1 0 -3.5 0zM1153.25 203 a1.75 1.75 0 1 0 3.5 0 a1.75 1.75 0 1 0 -3.5 0z"
                fill="black"></path>
            <path
                d="M929.25 371 a1.75 1.75 0 1 0 3.5 0 a1.75 1.75 0 1 0 -3.5 0zM1083.25 385 a1.75 1.75 0 1 0 3.5 0 a1.75 1.75 0 1 0 -3.5 0zM943.25 385 a1.75 1.75 0 1 0 3.5 0 a1.75 1.75 0 1 0 -3.5 0zM1125.25 385 a1.75 1.75 0 1 0 3.5 0 a1.75 1.75 0 1 0 -3.5 0zM1251.25 371 a1.75 1.75 0 1 0 3.5 0 a1.75 1.75 0 1 0 -3.5 0zM831.25 413 a1.75 1.75 0 1 0 3.5 0 a1.75 1.75 0 1 0 -3.5 0zM943.25 357 a1.75 1.75 0 1 0 3.5 0 a1.75 1.75 0 1 0 -3.5 0zM817.25 357 a1.75 1.75 0 1 0 3.5 0 a1.75 1.75 0 1 0 -3.5 0zM1167.25 399 a1.75 1.75 0 1 0 3.5 0 a1.75 1.75 0 1 0 -3.5 0zM943.25 329 a1.75 1.75 0 1 0 3.5 0 a1.75 1.75 0 1 0 -3.5 0z"
                fill="black"></path>
            <path
                d="M1097.25 175 a1.75 1.75 0 1 0 3.5 0 a1.75 1.75 0 1 0 -3.5 0zM1405.25 217 a1.75 1.75 0 1 0 3.5 0 a1.75 1.75 0 1 0 -3.5 0zM1363.25 203 a1.75 1.75 0 1 0 3.5 0 a1.75 1.75 0 1 0 -3.5 0z"
                fill="black"></path>
            <path
                d="M1251.25 385 a1.75 1.75 0 1 0 3.5 0 a1.75 1.75 0 1 0 -3.5 0zM1237.25 385 a1.75 1.75 0 1 0 3.5 0 a1.75 1.75 0 1 0 -3.5 0zM1307.25 371 a1.75 1.75 0 1 0 3.5 0 a1.75 1.75 0 1 0 -3.5 0z"
                fill="black"></path>
            <path
                d="M929.25 175 a1.75 1.75 0 1 0 3.5 0 a1.75 1.75 0 1 0 -3.5 0zM1321.25 189 a1.75 1.75 0 1 0 3.5 0 a1.75 1.75 0 1 0 -3.5 0zM873.25 161 a1.75 1.75 0 1 0 3.5 0 a1.75 1.75 0 1 0 -3.5 0zM873.25 147 a1.75 1.75 0 1 0 3.5 0 a1.75 1.75 0 1 0 -3.5 0zM1083.25 147 a1.75 1.75 0 1 0 3.5 0 a1.75 1.75 0 1 0 -3.5 0zM1013.25 175 a1.75 1.75 0 1 0 3.5 0 a1.75 1.75 0 1 0 -3.5 0zM915.25 133 a1.75 1.75 0 1 0 3.5 0 a1.75 1.75 0 1 0 -3.5 0zM1041.25 175 a1.75 1.75 0 1 0 3.5 0 a1.75 1.75 0 1 0 -3.5 0zM1111.25 147 a1.75 1.75 0 1 0 3.5 0 a1.75 1.75 0 1 0 -3.5 0zM1069.25 175 a1.75 1.75 0 1 0 3.5 0 a1.75 1.75 0 1 0 -3.5 0z"
                fill="black"></path>
            <path d="M1307.25 399 a1.75 1.75 0 1 0 3.5 0 a1.75 1.75 0 1 0 -3.5 0z" fill="black"></path>
            <path
                d="M761.25 105 a1.75 1.75 0 1 0 3.5 0 a1.75 1.75 0 1 0 -3.5 0zM859.25 91 a1.75 1.75 0 1 0 3.5 0 a1.75 1.75 0 1 0 -3.5 0zM929.25 105 a1.75 1.75 0 1 0 3.5 0 a1.75 1.75 0 1 0 -3.5 0zM1195.25 147 a1.75 1.75 0 1 0 3.5 0 a1.75 1.75 0 1 0 -3.5 0zM1027.25 133 a1.75 1.75 0 1 0 3.5 0 a1.75 1.75 0 1 0 -3.5 0zM985.25 105 a1.75 1.75 0 1 0 3.5 0 a1.75 1.75 0 1 0 -3.5 0zM887.25 119 a1.75 1.75 0 1 0 3.5 0 a1.75 1.75 0 1 0 -3.5 0zM1293.25 161 a1.75 1.75 0 1 0 3.5 0 a1.75 1.75 0 1 0 -3.5 0zM747.25 119 a1.75 1.75 0 1 0 3.5 0 a1.75 1.75 0 1 0 -3.5 0zM901.25 77 a1.75 1.75 0 1 0 3.5 0 a1.75 1.75 0 1 0 -3.5 0zM957.25 133 a1.75 1.75 0 1 0 3.5 0 a1.75 1.75 0 1 0 -3.5 0zM859.25 105 a1.75 1.75 0 1 0 3.5 0 a1.75 1.75 0 1 0 -3.5 0zM1349.25 161 a1.75 1.75 0 1 0 3.5 0 a1.75 1.75 0 1 0 -3.5 0z"
                fill="black"></path>
            <path
                d="M1055.25 399 a1.75 1.75 0 1 0 3.5 0 a1.75 1.75 0 1 0 -3.5 0zM1195.25 399 a1.75 1.75 0 1 0 3.5 0 a1.75 1.75 0 1 0 -3.5 0zM1125.25 413 a1.75 1.75 0 1 0 3.5 0 a1.75 1.75 0 1 0 -3.5 0z"
                fill="black"></path>
            <path
                d="M1209.25 133 a1.75 1.75 0 1 0 3.5 0 a1.75 1.75 0 1 0 -3.5 0zM1251.25 147 a1.75 1.75 0 1 0 3.5 0 a1.75 1.75 0 1 0 -3.5 0zM1293.25 147 a1.75 1.75 0 1 0 3.5 0 a1.75 1.75 0 1 0 -3.5 0zM1223.25 161 a1.75 1.75 0 1 0 3.5 0 a1.75 1.75 0 1 0 -3.5 0zM1307.25 147 a1.75 1.75 0 1 0 3.5 0 a1.75 1.75 0 1 0 -3.5 0z"
                fill="black"></path>
            <path
                d="M1069.25 413 a1.75 1.75 0 1 0 3.5 0 a1.75 1.75 0 1 0 -3.5 0zM1167.25 455 a1.75 1.75 0 1 0 3.5 0 a1.75 1.75 0 1 0 -3.5 0zM1069.25 441 a1.75 1.75 0 1 0 3.5 0 a1.75 1.75 0 1 0 -3.5 0zM1111.25 455 a1.75 1.75 0 1 0 3.5 0 a1.75 1.75 0 1 0 -3.5 0zM1223.25 441 a1.75 1.75 0 1 0 3.5 0 a1.75 1.75 0 1 0 -3.5 0zM1293.25 441 a1.75 1.75 0 1 0 3.5 0 a1.75 1.75 0 1 0 -3.5 0zM1377.25 413 a1.75 1.75 0 1 0 3.5 0 a1.75 1.75 0 1 0 -3.5 0zM1083.25 469 a1.75 1.75 0 1 0 3.5 0 a1.75 1.75 0 1 0 -3.5 0z"
                fill="black"></path>
            <path d="M1405.25 147 a1.75 1.75 0 1 0 3.5 0 a1.75 1.75 0 1 0 -3.5 0z" fill="black"></path>
            <path
                d="M1377.25 427 a1.75 1.75 0 1 0 3.5 0 a1.75 1.75 0 1 0 -3.5 0zM1405.25 427 a1.75 1.75 0 1 0 3.5 0 a1.75 1.75 0 1 0 -3.5 0zM1349.25 441 a1.75 1.75 0 1 0 3.5 0 a1.75 1.75 0 1 0 -3.5 0zM1391.25 413 a1.75 1.75 0 1 0 3.5 0 a1.75 1.75 0 1 0 -3.5 0z"
                fill="black"></path>
            <path
                d="M1139.25 119 a1.75 1.75 0 1 0 3.5 0 a1.75 1.75 0 1 0 -3.5 0zM1293.25 105 a1.75 1.75 0 1 0 3.5 0 a1.75 1.75 0 1 0 -3.5 0zM1139.25 133 a1.75 1.75 0 1 0 3.5 0 a1.75 1.75 0 1 0 -3.5 0zM1153.25 133 a1.75 1.75 0 1 0 3.5 0 a1.75 1.75 0 1 0 -3.5 0zM1111.25 105 a1.75 1.75 0 1 0 3.5 0 a1.75 1.75 0 1 0 -3.5 0zM1167.25 77 a1.75 1.75 0 1 0 3.5 0 a1.75 1.75 0 1 0 -3.5 0z"
                fill="black"></path>
        </mask>
    </defs>
</svg>