<svg xmlns="http://www.w3.org/2000/svg" version="1.1" xmlns:xlink="http://www.w3.org/1999/xlink"
    xmlns:svgjs="http://svgjs.com/svgjs" width="1440" height="560" preserveAspectRatio="none" viewBox="0 0 1440 560">
    <g mask="url(&quot;#SvgjsMask1032&quot;)" fill="none">
        <g mask="url(&quot;#SvgjsMask1033&quot;)">
            <path
                d="M1197 297L1179 315L1161 315L1143 315L1125 315L1107 315L1089 315L1071 315L1053 315L1035 315L1017 315M1215 297L1197 315M819 261L801 243L783 243L765 243M1449 297L1431 279L1413 279L1395 279L1377 279L1359 279L1341 279L1323 279L1305 279L1287 279L1269 279L1251 279M945 297L927 315L909 315L891 315L873 297M855 279L837 279L819 279L801 279L783 279L765 279M891 279L873 261L855 261L837 243L819 243L801 225M927 297L909 297L891 297M1233 297L1215 315M1467 279L1449 297L1431 297L1413 297L1395 297L1377 297L1359 297L1341 297L1323 297L1305 297L1287 297L1269 297L1251 297L1233 297L1215 297L1197 297L1179 297L1161 297L1143 297L1125 297L1107 297L1089 297L1071 297L1053 297L1035 297L1017 297L999 297L981 297L963 297L945 297L927 297L909 279L891 279L873 279L855 279L837 261L819 261L801 261L783 261"
                stroke="rgba(1, 63, 91, 1)" stroke-width="3"></path>
            <path
                d="M778.5 261 a4.5 4.5 0 1 0 9 0 a4.5 4.5 0 1 0 -9 0zM1012.5 315 a4.5 4.5 0 1 0 9 0 a4.5 4.5 0 1 0 -9 0zM1192.5 315 a4.5 4.5 0 1 0 9 0 a4.5 4.5 0 1 0 -9 0zM760.5 243 a4.5 4.5 0 1 0 9 0 a4.5 4.5 0 1 0 -9 0zM1246.5 279 a4.5 4.5 0 1 0 9 0 a4.5 4.5 0 1 0 -9 0zM868.5 297 a4.5 4.5 0 1 0 9 0 a4.5 4.5 0 1 0 -9 0zM760.5 279 a4.5 4.5 0 1 0 9 0 a4.5 4.5 0 1 0 -9 0zM796.5 225 a4.5 4.5 0 1 0 9 0 a4.5 4.5 0 1 0 -9 0zM886.5 297 a4.5 4.5 0 1 0 9 0 a4.5 4.5 0 1 0 -9 0zM1210.5 315 a4.5 4.5 0 1 0 9 0 a4.5 4.5 0 1 0 -9 0z"
                fill="rgba(1, 63, 91, 1)"></path>
            <path
                d="M981 279L963 261L945 261L927 261M1179 279L1161 261L1143 243L1125 243L1107 243L1089 243L1071 243L1053 243L1035 243M1251 261L1233 261L1215 243M1197 279L1179 261M1089 279L1071 261L1053 261M999 279L981 261L963 243L945 243L927 243L909 225L891 225L873 225L855 225L837 225L819 225M1125 279L1107 261L1089 261M1215 279L1197 261L1179 243L1161 243L1143 225L1125 225M1467 261L1449 261L1431 261L1413 261L1395 261L1377 261L1359 261L1341 261L1323 261L1305 261L1287 261L1269 261L1251 261L1233 279L1215 279L1197 279L1179 279L1161 279L1143 279L1125 279L1107 279L1089 279L1071 279L1053 279L1035 279L1017 279L999 279L981 279L963 279L945 279L927 279L909 261"
                stroke="rgba(1, 63, 91, 1)" stroke-width="3"></path>
            <path
                d="M904.5 261 a4.5 4.5 0 1 0 9 0 a4.5 4.5 0 1 0 -9 0zM922.5 261 a4.5 4.5 0 1 0 9 0 a4.5 4.5 0 1 0 -9 0zM1030.5 243 a4.5 4.5 0 1 0 9 0 a4.5 4.5 0 1 0 -9 0zM1210.5 243 a4.5 4.5 0 1 0 9 0 a4.5 4.5 0 1 0 -9 0zM1174.5 261 a4.5 4.5 0 1 0 9 0 a4.5 4.5 0 1 0 -9 0zM1048.5 261 a4.5 4.5 0 1 0 9 0 a4.5 4.5 0 1 0 -9 0zM814.5 225 a4.5 4.5 0 1 0 9 0 a4.5 4.5 0 1 0 -9 0zM1084.5 261 a4.5 4.5 0 1 0 9 0 a4.5 4.5 0 1 0 -9 0zM1120.5 225 a4.5 4.5 0 1 0 9 0 a4.5 4.5 0 1 0 -9 0z"
                fill="rgba(1, 63, 91, 1)"></path>
            <path d="M1467 315L1449 315L1431 315L1413 315" stroke="rgba(99, 74, 1, 1)" stroke-width="3"></path>
            <path d="M1408.5 315 a4.5 4.5 0 1 0 9 0 a4.5 4.5 0 1 0 -9 0z" fill="rgba(99, 74, 1, 1)"></path>
            <path
                d="M1323 243L1305 225L1287 225L1269 225L1251 225M1431 243L1413 225L1395 225M1467 243L1449 243L1431 243L1413 243L1395 243L1377 243L1359 243L1341 243L1323 243L1305 243L1287 243L1269 243L1251 243L1233 243"
                stroke="rgba(1, 63, 91, 1)" stroke-width="3"></path>
            <path
                d="M1228.5 243 a4.5 4.5 0 1 0 9 0 a4.5 4.5 0 1 0 -9 0zM1246.5 225 a4.5 4.5 0 1 0 9 0 a4.5 4.5 0 1 0 -9 0zM1390.5 225 a4.5 4.5 0 1 0 9 0 a4.5 4.5 0 1 0 -9 0z"
                fill="rgba(1, 63, 91, 1)"></path>
            <path
                d="M909 351L891 351L873 351L855 351L837 351L819 351L801 333M1143 333L1125 333M1269 333L1251 315M1341 315L1323 333L1305 333M1359 315L1341 333M1107 351L1089 333L1071 333L1053 333L1035 333L1017 333M1395 333L1377 333L1359 333M891 333L873 333L855 333L837 333L819 333L801 315M981 351L963 333M1467 333L1449 333L1431 333L1413 333L1395 333L1377 315L1359 315L1341 315L1323 315L1305 315L1287 333L1269 333L1251 333L1233 333L1215 333L1197 333L1179 333L1161 333L1143 333L1125 351L1107 351L1089 351L1071 351L1053 369L1035 369L1017 369L999 351L981 351L963 351L945 351L927 351L909 351L891 333L873 315L855 297L837 297"
                stroke="rgba(4, 141, 205, 1)" stroke-width="3"></path>
            <path
                d="M832.5 297 a4.5 4.5 0 1 0 9 0 a4.5 4.5 0 1 0 -9 0zM796.5 333 a4.5 4.5 0 1 0 9 0 a4.5 4.5 0 1 0 -9 0zM1120.5 333 a4.5 4.5 0 1 0 9 0 a4.5 4.5 0 1 0 -9 0zM1246.5 315 a4.5 4.5 0 1 0 9 0 a4.5 4.5 0 1 0 -9 0zM1300.5 333 a4.5 4.5 0 1 0 9 0 a4.5 4.5 0 1 0 -9 0zM1336.5 333 a4.5 4.5 0 1 0 9 0 a4.5 4.5 0 1 0 -9 0zM1012.5 333 a4.5 4.5 0 1 0 9 0 a4.5 4.5 0 1 0 -9 0zM1354.5 333 a4.5 4.5 0 1 0 9 0 a4.5 4.5 0 1 0 -9 0zM796.5 315 a4.5 4.5 0 1 0 9 0 a4.5 4.5 0 1 0 -9 0zM958.5 333 a4.5 4.5 0 1 0 9 0 a4.5 4.5 0 1 0 -9 0z"
                fill="rgba(4, 141, 205, 1)"></path>
            <path
                d="M891 387L873 369L855 369L837 369M837 387L819 387L801 387L783 369L765 369M981 387L963 369L945 369L927 369L909 369L891 369M1125 369L1107 387L1089 387M1017 387L999 405M1053 387L1035 405M1179 351L1161 369L1143 369L1125 387L1107 405M927 387L909 405L891 405L873 405L855 405L837 405L819 405M819 369L801 369M963 387L945 405L927 405M1467 351L1449 351L1431 351L1413 351L1395 351L1377 351L1359 351L1341 351L1323 351L1305 351L1287 351L1269 351L1251 351L1233 351L1215 351L1197 351L1179 351L1161 351L1143 351L1125 369L1107 369L1089 369L1071 369L1053 387L1035 387L1017 387L999 387L981 387L963 387L945 387L927 387L909 387L891 387L873 387L855 387L837 387L819 369L801 351L783 351L765 333"
                stroke="rgba(1, 63, 91, 1)" stroke-width="3"></path>
            <path
                d="M760.5 333 a4.5 4.5 0 1 0 9 0 a4.5 4.5 0 1 0 -9 0zM832.5 369 a4.5 4.5 0 1 0 9 0 a4.5 4.5 0 1 0 -9 0zM760.5 369 a4.5 4.5 0 1 0 9 0 a4.5 4.5 0 1 0 -9 0zM886.5 369 a4.5 4.5 0 1 0 9 0 a4.5 4.5 0 1 0 -9 0zM1084.5 387 a4.5 4.5 0 1 0 9 0 a4.5 4.5 0 1 0 -9 0zM994.5 405 a4.5 4.5 0 1 0 9 0 a4.5 4.5 0 1 0 -9 0zM1030.5 405 a4.5 4.5 0 1 0 9 0 a4.5 4.5 0 1 0 -9 0zM1102.5 405 a4.5 4.5 0 1 0 9 0 a4.5 4.5 0 1 0 -9 0zM814.5 405 a4.5 4.5 0 1 0 9 0 a4.5 4.5 0 1 0 -9 0zM796.5 369 a4.5 4.5 0 1 0 9 0 a4.5 4.5 0 1 0 -9 0zM922.5 405 a4.5 4.5 0 1 0 9 0 a4.5 4.5 0 1 0 -9 0z"
                fill="rgba(1, 63, 91, 1)"></path>
            <path
                d="M1377 225L1359 207M1395 207L1377 207L1359 189L1341 189L1323 189M1449 207L1431 225M1467 207L1449 207L1431 207L1413 207L1395 207L1377 225L1359 225L1341 225"
                stroke="rgba(1, 63, 91, 1)" stroke-width="3"></path>
            <path
                d="M1336.5 225 a4.5 4.5 0 1 0 9 0 a4.5 4.5 0 1 0 -9 0zM1354.5 207 a4.5 4.5 0 1 0 9 0 a4.5 4.5 0 1 0 -9 0zM1318.5 189 a4.5 4.5 0 1 0 9 0 a4.5 4.5 0 1 0 -9 0zM1426.5 225 a4.5 4.5 0 1 0 9 0 a4.5 4.5 0 1 0 -9 0z"
                fill="rgba(1, 63, 91, 1)"></path>
            <path
                d="M1215 405L1197 387M1287 387L1269 369M1269 387L1251 369L1233 369L1215 369L1197 369L1179 369M1251 405L1233 387L1215 387M1467 369L1449 369L1431 369L1413 369L1395 369L1377 369L1359 369L1341 369L1323 369L1305 369L1287 387L1269 387L1251 405L1233 405L1215 405L1197 405"
                stroke="rgba(1, 63, 91, 1)" stroke-width="3"></path>
            <path
                d="M1192.5 405 a4.5 4.5 0 1 0 9 0 a4.5 4.5 0 1 0 -9 0zM1192.5 387 a4.5 4.5 0 1 0 9 0 a4.5 4.5 0 1 0 -9 0zM1264.5 369 a4.5 4.5 0 1 0 9 0 a4.5 4.5 0 1 0 -9 0zM1174.5 369 a4.5 4.5 0 1 0 9 0 a4.5 4.5 0 1 0 -9 0zM1210.5 387 a4.5 4.5 0 1 0 9 0 a4.5 4.5 0 1 0 -9 0z"
                fill="rgba(1, 63, 91, 1)"></path>
            <path d="M1395 171L1377 189M1413 189L1395 189M1467 189L1449 189L1431 189L1413 189L1395 171L1377 171"
                stroke="rgba(1, 63, 91, 1)" stroke-width="3"></path>
            <path
                d="M1372.5 171 a4.5 4.5 0 1 0 9 0 a4.5 4.5 0 1 0 -9 0zM1372.5 189 a4.5 4.5 0 1 0 9 0 a4.5 4.5 0 1 0 -9 0zM1390.5 189 a4.5 4.5 0 1 0 9 0 a4.5 4.5 0 1 0 -9 0z"
                fill="rgba(1, 63, 91, 1)"></path>
            <path
                d="M1233 423L1215 441L1197 441L1179 441L1161 459M1161 441L1143 423L1125 423L1107 423L1089 423L1071 423M1251 423L1233 441L1215 459L1197 459M1035 423L1017 441L999 441L981 441L963 441L945 441M1125 441L1107 459L1089 459L1071 459L1053 459L1035 459L1017 459L999 459L981 459M1341 387L1323 405L1305 405L1287 423L1269 423M1053 441L1035 441M1467 387L1449 387L1431 387L1413 387L1395 387L1377 387L1359 387L1341 387L1323 387L1305 387L1287 405L1269 405L1251 423L1233 423L1215 423L1197 423L1179 423L1161 441L1143 441L1125 441L1107 441L1089 441L1071 441L1053 441L1035 423L1017 423L999 423L981 423"
                stroke="rgba(4, 141, 205, 1)" stroke-width="3"></path>
            <path
                d="M976.5 423 a4.5 4.5 0 1 0 9 0 a4.5 4.5 0 1 0 -9 0zM1156.5 459 a4.5 4.5 0 1 0 9 0 a4.5 4.5 0 1 0 -9 0zM1066.5 423 a4.5 4.5 0 1 0 9 0 a4.5 4.5 0 1 0 -9 0zM1192.5 459 a4.5 4.5 0 1 0 9 0 a4.5 4.5 0 1 0 -9 0zM940.5 441 a4.5 4.5 0 1 0 9 0 a4.5 4.5 0 1 0 -9 0zM976.5 459 a4.5 4.5 0 1 0 9 0 a4.5 4.5 0 1 0 -9 0zM1264.5 423 a4.5 4.5 0 1 0 9 0 a4.5 4.5 0 1 0 -9 0zM1030.5 441 a4.5 4.5 0 1 0 9 0 a4.5 4.5 0 1 0 -9 0z"
                fill="rgba(4, 141, 205, 1)"></path>
            <path
                d="M1197 189L1179 171L1161 171M1305 171L1287 153L1269 135L1251 135M1179 207L1161 225M1359 153L1341 153L1323 153L1305 153L1287 135M1287 171L1269 171L1251 171L1233 171M1467 171L1449 171L1431 171L1413 171L1395 153L1377 153L1359 153L1341 171L1323 171L1305 171L1287 171L1269 189L1251 189L1233 189L1215 189L1197 189L1179 207L1161 207L1143 207L1125 207L1107 207L1089 207"
                stroke="rgba(99, 74, 1, 1)" stroke-width="3"></path>
            <path
                d="M1084.5 207 a4.5 4.5 0 1 0 9 0 a4.5 4.5 0 1 0 -9 0zM1156.5 171 a4.5 4.5 0 1 0 9 0 a4.5 4.5 0 1 0 -9 0zM1246.5 135 a4.5 4.5 0 1 0 9 0 a4.5 4.5 0 1 0 -9 0zM1156.5 225 a4.5 4.5 0 1 0 9 0 a4.5 4.5 0 1 0 -9 0zM1282.5 135 a4.5 4.5 0 1 0 9 0 a4.5 4.5 0 1 0 -9 0zM1228.5 171 a4.5 4.5 0 1 0 9 0 a4.5 4.5 0 1 0 -9 0z"
                fill="rgba(99, 74, 1, 1)"></path>
            <path d="M1449 405L1431 423L1413 423M1467 405L1449 405L1431 405L1413 405L1395 405L1377 423L1359 423"
                stroke="rgba(99, 74, 1, 1)" stroke-width="3"></path>
            <path
                d="M1354.5 423 a4.5 4.5 0 1 0 9 0 a4.5 4.5 0 1 0 -9 0zM1408.5 423 a4.5 4.5 0 1 0 9 0 a4.5 4.5 0 1 0 -9 0z"
                fill="rgba(99, 74, 1, 1)"></path>
            <path
                d="M1359 135L1341 117L1323 117M1449 153L1431 135L1413 135M1467 153L1449 153L1431 153L1413 153L1395 135L1377 135L1359 135L1341 135"
                stroke="rgba(99, 74, 1, 1)" stroke-width="3"></path>
            <path
                d="M1336.5 135 a4.5 4.5 0 1 0 9 0 a4.5 4.5 0 1 0 -9 0zM1318.5 117 a4.5 4.5 0 1 0 9 0 a4.5 4.5 0 1 0 -9 0zM1408.5 135 a4.5 4.5 0 1 0 9 0 a4.5 4.5 0 1 0 -9 0z"
                fill="rgba(99, 74, 1, 1)"></path>
        </g>
    </g>
    <defs>
        <mask id="SvgjsMask1032">
            <rect width="1440" height="560" fill="#ffffff"></rect>
        </mask>
        <mask id="SvgjsMask1033">
            <rect width="1440" height="560" fill="white"></rect>
            <path
                d="M780.75 261 a2.25 2.25 0 1 0 4.5 0 a2.25 2.25 0 1 0 -4.5 0zM1014.75 315 a2.25 2.25 0 1 0 4.5 0 a2.25 2.25 0 1 0 -4.5 0zM1194.75 315 a2.25 2.25 0 1 0 4.5 0 a2.25 2.25 0 1 0 -4.5 0zM762.75 243 a2.25 2.25 0 1 0 4.5 0 a2.25 2.25 0 1 0 -4.5 0zM1248.75 279 a2.25 2.25 0 1 0 4.5 0 a2.25 2.25 0 1 0 -4.5 0zM870.75 297 a2.25 2.25 0 1 0 4.5 0 a2.25 2.25 0 1 0 -4.5 0zM762.75 279 a2.25 2.25 0 1 0 4.5 0 a2.25 2.25 0 1 0 -4.5 0zM798.75 225 a2.25 2.25 0 1 0 4.5 0 a2.25 2.25 0 1 0 -4.5 0zM888.75 297 a2.25 2.25 0 1 0 4.5 0 a2.25 2.25 0 1 0 -4.5 0zM1212.75 315 a2.25 2.25 0 1 0 4.5 0 a2.25 2.25 0 1 0 -4.5 0z"
                fill="black"></path>
            <path
                d="M906.75 261 a2.25 2.25 0 1 0 4.5 0 a2.25 2.25 0 1 0 -4.5 0zM924.75 261 a2.25 2.25 0 1 0 4.5 0 a2.25 2.25 0 1 0 -4.5 0zM1032.75 243 a2.25 2.25 0 1 0 4.5 0 a2.25 2.25 0 1 0 -4.5 0zM1212.75 243 a2.25 2.25 0 1 0 4.5 0 a2.25 2.25 0 1 0 -4.5 0zM1176.75 261 a2.25 2.25 0 1 0 4.5 0 a2.25 2.25 0 1 0 -4.5 0zM1050.75 261 a2.25 2.25 0 1 0 4.5 0 a2.25 2.25 0 1 0 -4.5 0zM816.75 225 a2.25 2.25 0 1 0 4.5 0 a2.25 2.25 0 1 0 -4.5 0zM1086.75 261 a2.25 2.25 0 1 0 4.5 0 a2.25 2.25 0 1 0 -4.5 0zM1122.75 225 a2.25 2.25 0 1 0 4.5 0 a2.25 2.25 0 1 0 -4.5 0z"
                fill="black"></path>
            <path d="M1410.75 315 a2.25 2.25 0 1 0 4.5 0 a2.25 2.25 0 1 0 -4.5 0z" fill="black"></path>
            <path
                d="M1230.75 243 a2.25 2.25 0 1 0 4.5 0 a2.25 2.25 0 1 0 -4.5 0zM1248.75 225 a2.25 2.25 0 1 0 4.5 0 a2.25 2.25 0 1 0 -4.5 0zM1392.75 225 a2.25 2.25 0 1 0 4.5 0 a2.25 2.25 0 1 0 -4.5 0z"
                fill="black"></path>
            <path
                d="M834.75 297 a2.25 2.25 0 1 0 4.5 0 a2.25 2.25 0 1 0 -4.5 0zM798.75 333 a2.25 2.25 0 1 0 4.5 0 a2.25 2.25 0 1 0 -4.5 0zM1122.75 333 a2.25 2.25 0 1 0 4.5 0 a2.25 2.25 0 1 0 -4.5 0zM1248.75 315 a2.25 2.25 0 1 0 4.5 0 a2.25 2.25 0 1 0 -4.5 0zM1302.75 333 a2.25 2.25 0 1 0 4.5 0 a2.25 2.25 0 1 0 -4.5 0zM1338.75 333 a2.25 2.25 0 1 0 4.5 0 a2.25 2.25 0 1 0 -4.5 0zM1014.75 333 a2.25 2.25 0 1 0 4.5 0 a2.25 2.25 0 1 0 -4.5 0zM1356.75 333 a2.25 2.25 0 1 0 4.5 0 a2.25 2.25 0 1 0 -4.5 0zM798.75 315 a2.25 2.25 0 1 0 4.5 0 a2.25 2.25 0 1 0 -4.5 0zM960.75 333 a2.25 2.25 0 1 0 4.5 0 a2.25 2.25 0 1 0 -4.5 0z"
                fill="black"></path>
            <path
                d="M762.75 333 a2.25 2.25 0 1 0 4.5 0 a2.25 2.25 0 1 0 -4.5 0zM834.75 369 a2.25 2.25 0 1 0 4.5 0 a2.25 2.25 0 1 0 -4.5 0zM762.75 369 a2.25 2.25 0 1 0 4.5 0 a2.25 2.25 0 1 0 -4.5 0zM888.75 369 a2.25 2.25 0 1 0 4.5 0 a2.25 2.25 0 1 0 -4.5 0zM1086.75 387 a2.25 2.25 0 1 0 4.5 0 a2.25 2.25 0 1 0 -4.5 0zM996.75 405 a2.25 2.25 0 1 0 4.5 0 a2.25 2.25 0 1 0 -4.5 0zM1032.75 405 a2.25 2.25 0 1 0 4.5 0 a2.25 2.25 0 1 0 -4.5 0zM1104.75 405 a2.25 2.25 0 1 0 4.5 0 a2.25 2.25 0 1 0 -4.5 0zM816.75 405 a2.25 2.25 0 1 0 4.5 0 a2.25 2.25 0 1 0 -4.5 0zM798.75 369 a2.25 2.25 0 1 0 4.5 0 a2.25 2.25 0 1 0 -4.5 0zM924.75 405 a2.25 2.25 0 1 0 4.5 0 a2.25 2.25 0 1 0 -4.5 0z"
                fill="black"></path>
            <path
                d="M1338.75 225 a2.25 2.25 0 1 0 4.5 0 a2.25 2.25 0 1 0 -4.5 0zM1356.75 207 a2.25 2.25 0 1 0 4.5 0 a2.25 2.25 0 1 0 -4.5 0zM1320.75 189 a2.25 2.25 0 1 0 4.5 0 a2.25 2.25 0 1 0 -4.5 0zM1428.75 225 a2.25 2.25 0 1 0 4.5 0 a2.25 2.25 0 1 0 -4.5 0z"
                fill="black"></path>
            <path
                d="M1194.75 405 a2.25 2.25 0 1 0 4.5 0 a2.25 2.25 0 1 0 -4.5 0zM1194.75 387 a2.25 2.25 0 1 0 4.5 0 a2.25 2.25 0 1 0 -4.5 0zM1266.75 369 a2.25 2.25 0 1 0 4.5 0 a2.25 2.25 0 1 0 -4.5 0zM1176.75 369 a2.25 2.25 0 1 0 4.5 0 a2.25 2.25 0 1 0 -4.5 0zM1212.75 387 a2.25 2.25 0 1 0 4.5 0 a2.25 2.25 0 1 0 -4.5 0z"
                fill="black"></path>
            <path
                d="M1374.75 171 a2.25 2.25 0 1 0 4.5 0 a2.25 2.25 0 1 0 -4.5 0zM1374.75 189 a2.25 2.25 0 1 0 4.5 0 a2.25 2.25 0 1 0 -4.5 0zM1392.75 189 a2.25 2.25 0 1 0 4.5 0 a2.25 2.25 0 1 0 -4.5 0z"
                fill="black"></path>
            <path
                d="M978.75 423 a2.25 2.25 0 1 0 4.5 0 a2.25 2.25 0 1 0 -4.5 0zM1158.75 459 a2.25 2.25 0 1 0 4.5 0 a2.25 2.25 0 1 0 -4.5 0zM1068.75 423 a2.25 2.25 0 1 0 4.5 0 a2.25 2.25 0 1 0 -4.5 0zM1194.75 459 a2.25 2.25 0 1 0 4.5 0 a2.25 2.25 0 1 0 -4.5 0zM942.75 441 a2.25 2.25 0 1 0 4.5 0 a2.25 2.25 0 1 0 -4.5 0zM978.75 459 a2.25 2.25 0 1 0 4.5 0 a2.25 2.25 0 1 0 -4.5 0zM1266.75 423 a2.25 2.25 0 1 0 4.5 0 a2.25 2.25 0 1 0 -4.5 0zM1032.75 441 a2.25 2.25 0 1 0 4.5 0 a2.25 2.25 0 1 0 -4.5 0z"
                fill="black"></path>
            <path
                d="M1086.75 207 a2.25 2.25 0 1 0 4.5 0 a2.25 2.25 0 1 0 -4.5 0zM1158.75 171 a2.25 2.25 0 1 0 4.5 0 a2.25 2.25 0 1 0 -4.5 0zM1248.75 135 a2.25 2.25 0 1 0 4.5 0 a2.25 2.25 0 1 0 -4.5 0zM1158.75 225 a2.25 2.25 0 1 0 4.5 0 a2.25 2.25 0 1 0 -4.5 0zM1284.75 135 a2.25 2.25 0 1 0 4.5 0 a2.25 2.25 0 1 0 -4.5 0zM1230.75 171 a2.25 2.25 0 1 0 4.5 0 a2.25 2.25 0 1 0 -4.5 0z"
                fill="black"></path>
            <path
                d="M1356.75 423 a2.25 2.25 0 1 0 4.5 0 a2.25 2.25 0 1 0 -4.5 0zM1410.75 423 a2.25 2.25 0 1 0 4.5 0 a2.25 2.25 0 1 0 -4.5 0z"
                fill="black"></path>
            <path
                d="M1338.75 135 a2.25 2.25 0 1 0 4.5 0 a2.25 2.25 0 1 0 -4.5 0zM1320.75 117 a2.25 2.25 0 1 0 4.5 0 a2.25 2.25 0 1 0 -4.5 0zM1410.75 135 a2.25 2.25 0 1 0 4.5 0 a2.25 2.25 0 1 0 -4.5 0z"
                fill="black"></path>
        </mask>
    </defs>
</svg>